# xmcd
#
# Track frame offsets: 
#        150
#        19125
#        33113
#        52943
#        70185
#        86903
#        107640
#        124883
#        135670
#        148453
#        165315
#        177093
#        199540
#        217050
#        229628
#        243008
#
# Disc length: 3429 seconds
#
# Revision: 0
# Processed by: cddbd v1.5.2PL0 Copyright (c) Steve Scherf et al.
# Submitted via: ExactAudioCopy v0.99pb3
#
DISCID=d90d6310
DTITLE=Sunnyland Slim - Bkues Masters - Vol. 8
DYEAR=1991
DGENRE=Blues
TTITLE0=Prison Bound Blues
TTITLE1=Johnson Machine Gun Blues
TTITLE2=Miss Ida B.
TTITLE3=Sad And Lonesome Blues
TTITLE4=That's Alright
TTITLE5=Anna Lou Blues
TTITLE6=I Done You Wrong
TTITLE7=It's You Baby
TTITLE8=Tin Pan Alley
TTITLE9=Brown Skin Woman
TTITLE10=You're The One
TTITLE11=Goin' Down Slow
TTITLE12=Women Trouble Blues
TTITLE13=Sittin' Here Thinking
TTITLE14=Sunnyland's Boogie
TTITLE15=One Room Country Shack
EXTD=
EXTT0=
EXTT1=
EXTT2=
EXTT3=
EXTT4=
EXTT5=
EXTT6=
EXTT7=
EXTT8=
EXTT9=
EXTT10=
EXTT11=
EXTT12=
EXTT13=
EXTT14=
EXTT15=
PLAYORDER=
